<?xml version="1.0" encoding="UTF-8" standalone="no"?>
<!-- Created with Inkscape (http://www.inkscape.org/) -->

<svg
   width="223.67317mm"
   height="226.23488mm"
   viewBox="0 0 223.67317 226.23488"
   version="1.1"
   id="svg1"
   xml:space="preserve"
   xmlns:xlink="http://www.w3.org/1999/xlink"
   xmlns="http://www.w3.org/2000/svg"
   xmlns:svg="http://www.w3.org/2000/svg"><defs
     id="defs1"><linearGradient
       id="linearGradient22031"><stop
         style="stop-color:#1b1d1c;stop-opacity:0.99215686"
         offset="0"
         id="stop22030" /><stop
         style="stop-color:#262626;stop-opacity:1"
         offset="1"
         id="stop22031" /></linearGradient><linearGradient
       id="linearGradient22029"><stop
         style="stop-color:#d57832;stop-opacity:1"
         offset="0"
         id="stop22028" /><stop
         style="stop-color:#e3a22b;stop-opacity:1"
         offset="1"
         id="stop22029" /></linearGradient><linearGradient
       id="linearGradient21863"><stop
         style="stop-color:#006b99;stop-opacity:1;"
         offset="0"
         id="stop21863" /><stop
         style="stop-color:#c57326;stop-opacity:1;"
         offset="1"
         id="stop21864" /></linearGradient><linearGradient
       xlink:href="#linearGradient21863"
       id="linearGradient21864"
       x1="-237.41148"
       y1="133.228"
       x2="-98.405243"
       y2="172.91551"
       gradientUnits="userSpaceOnUse"
       gradientTransform="translate(-24.915512,7.240327)" /><linearGradient
       xlink:href="#linearGradient22029"
       id="linearGradient22028"
       gradientUnits="userSpaceOnUse"
       gradientTransform="translate(-24.915512,7.240327)"
       x1="-109.83694"
       y1="206.25302"
       x2="-109.89193"
       y2="199.10928" /><linearGradient
       xlink:href="#linearGradient22031"
       id="linearGradient22030"
       gradientUnits="userSpaceOnUse"
       gradientTransform="translate(-24.915512,7.240327)"
       x1="-234.76566"
       y1="238.00299"
       x2="-16.384411"
       y2="238.53218" /></defs><g
     id="layer1"
     transform="translate(6.21053,-22.059118)"><g
       id="g22031"
       transform="translate(256.11667,-5.2916666)"><path
         id="path22016"
         style="fill:url(#linearGradient21864);fill-opacity:1"
         d="m -208.93298,27.350785 -2.44327,0.396359 -2.44326,0.396358 -2.05465,0.682129 -2.05466,0.682129 -1.45521,0.800468 -1.4552,0.800467 -1.92805,1.46296 -1.92805,1.46296 -1.71617,2.144572 -1.71618,2.145089 -1.1715,2.267562 -1.17099,2.267561 -0.74052,2.365231 -0.74053,2.364713 -0.13281,53.578127 -0.13229,53.57812 0.0811,13.95677 0.0811,13.95677 h 22.47253 22.47304 l 0.0677,-17.79322 0.0682,-17.79323 5.95313,-0.1602 5.95312,-0.15968 1.74357,-0.42168 1.74408,-0.42168 1.79368,-0.67541 1.79318,-0.6749 1.56476,-0.95084 1.56476,-0.95033 0.78497,-0.66043 0.78496,-0.66042 0.0186,0.22221 0.0191,0.22169 0.047,20.37292 0.0475,20.37291 22.82135,0.0677 22.82135,0.0677 -0.0672,-33.00833 -0.0672,-33.00832 -12.43542,-0.15916 -12.43542,-0.15916 -2.91041,-0.67645 -2.91042,-0.67644 -2.51354,-0.84181 -2.51354,-0.84181 -2.47479,-1.20354 -2.47427,-1.20355 -2.28823,-1.50688 -2.28771,-1.50689 -2.11667,-1.68 -2.11667,-1.68 -2.24947,-2.26653 -2.24948,-2.266527 -1.77508,-2.38125 -1.77509,-2.38125 -1.65209,-2.767273 -1.6521,-2.766756 -1.2361,-2.789494 -1.2361,-2.788977 -0.68936,-1.984375 -0.68988,-1.984375 -0.65836,-2.778125 -0.65836,-2.778125 -0.40463,-3.12229 -0.40411,-3.12229 v -3.137276 -3.137276 l 0.42013,-3.239596 0.42013,-3.240112 0.90641,-3.305741 0.90589,-3.306259 1.21388,-2.875793 1.21387,-2.875793 1.46607,-2.442745 1.46606,-2.442745 1.6986,-2.185397 1.6986,-2.185913 1.42421,-1.53789 1.42368,-1.537891 1.88464,-1.567863 1.88412,-1.56838 -3.78788,-0.165364 -3.78736,-0.164848 -17.4625,-0.03256 z m 63.5,0.130225 -2.44998,0.471289 -2.44947,0.471806 -2.35644,0.769979 -2.35696,0.769978 -1.67587,0.838192 -1.67587,0.837675 -2.24947,1.486731 -2.24896,1.487248 -2.07429,1.981791 -2.07429,1.981791 -1.55391,2.06189 -1.55391,2.062406 -1.12293,1.914612 -1.12242,1.914612 -0.99528,2.300635 -0.99581,2.300118 -0.66146,2.352828 -0.66146,2.352828 -0.40359,2.490287 -0.40359,2.490804 -0.16692,2.778125 -0.16691,2.778125 0.31109,2.910417 0.31161,2.910416 0.53278,2.645834 0.53279,2.645833 0.82889,2.513542 0.8294,2.513541 1.48984,2.910417 1.48983,2.910417 1.19321,1.852083 1.19321,1.852083 1.63917,2.035018 1.63918,2.035535 2.3058,2.158524 2.3058,2.15852 2.36885,1.58492 2.36885,1.58543 2.35593,1.18288 2.35541,1.18339 2.73988,0.91674 2.73989,0.91674 2.8546,0.55965 2.85461,0.56018 13.49375,0.19068 13.49323,0.19069 1.96991,0.45423 1.96939,0.45372 1.6061,0.60462 1.60559,0.60461 1.71617,0.86507 1.71669,0.86558 1.45521,0.98753 1.45521,0.98754 1.873787,1.973 1.874305,1.97353 0.864546,1.25677 0.864547,1.25625 1.036629,2.21227 1.036629,2.21175 0.519865,2.46445 0.519865,2.46393 0.001,3.04271 5.17e-4,3.04271 -0.498161,2.41484 -0.498678,2.41484 -0.95343,2.33836 -0.952913,2.33836 v 0.20774 l -5.17e-4,0.20773 h 12.111922 12.111405 l 2.196766,-0.27543 2.196248,-0.27544 2.160075,-0.68212 2.159558,-0.68213 2.179712,-1.00718 2.179712,-1.00717 2.010213,-1.38958 2.009696,-1.38906 2.032435,-2.17248 2.032434,-2.17248 1.155485,-2.01951 1.155485,-2.01952 0.625285,-1.54771 0.625284,-1.54822 0.446485,-1.68775 0.447001,-1.68776 0.01964,-3.83646 0.01964,-3.83645 h -8.452714 -8.452197 l -0.337964,2.34249 -0.338481,2.34198 -0.644405,1.40818 -0.644922,1.40818 -1.110526,1.2051 -1.111044,1.20509 -1.369942,0.67024 -1.369942,0.67025 -1.842265,0.22479 -1.842265,0.22427 -0.330729,-0.12402 -0.330729,-0.12402 V 97.738737 66.321016 l -0.646472,-1.214912 -0.645956,-1.21543 -6.40426,-9.870716 -6.403743,-9.870198 -2.144056,-3.42098 -2.144055,-3.42098 -1.697571,-1.816943 -1.69757,-1.816943 -2.327507,-1.557011 -2.327506,-1.556494 -1.744597,-0.832508 -1.744084,-0.833024 -2.69751,-0.706933 -2.69699,-0.706934 h -19.18229 z m 36.72282,31.557764 2.40812,0.113688 2.40761,0.113688 1.35134,0.695565 1.35185,0.695048 1.16169,1.293978 1.1622,1.293977 0.464571,1.300179 0.464054,1.300696 -10e-4,1.776119 -5.17e-4,1.775602 -0.569991,1.523422 -0.569991,1.522904 -1.356506,1.356506 -1.35651,1.356507 -1.45728,0.545703 -1.4583,0.545186 -1.18029,0.144178 -1.18029,0.144177 -1.32292,-0.337447 -1.32292,-0.337964 -1.07642,-0.556555 -1.07642,-0.556556 -0.96221,-1.065568 -0.96273,-1.065568 -0.6072,-1.136364 -0.60668,-1.136365 5.1e-4,-2.645833 v -2.645834 l 0.70384,-1.333768 0.70383,-1.333252 1.23403,-1.137399 1.23352,-1.137398 1.21078,-0.535368 z" /><path
         id="path22013"
         style="fill:url(#linearGradient22028);fill-opacity:1"
         d="m -156.15894,199.84 -0.10852,0.33951 -0.10801,0.339 -0.14986,13.84463 -0.14986,13.84464 0.27698,0.51728 0.27699,0.51728 3.0949,-0.0744 3.0949,-0.0744 0.0713,-5.85701 0.0713,-5.85752 0.45785,-0.10387 0.45786,-0.10335 6.01927,0.0992 6.01927,0.0997 0.0264,5.2002 0.0264,5.19968 0.18448,0.66146 0.18397,0.66146 h 3.03031 3.03082 l 0.0687,-14.6265 0.0682,-14.62598 -3.24321,0.0739 -3.24373,0.0744 -0.13229,5.68854 -0.13229,5.68855 -6.41098,0.0708 -6.41046,0.0708 -0.0713,-5.75934 -0.0713,-5.75934 -3.11402,-0.0744 z m -14.69316,0.008 -7.00216,0.0708 -7.00164,0.0708 -0.0491,14.2875 -0.0486,14.2875 0.10645,0.33073 0.10698,0.33073 h 3.18326 3.18327 v -4.60023 -4.60024 l 4.56406,-0.12402 4.56407,-0.12351 1.7601,-0.57051 1.7601,-0.56999 1.2826,-0.85731 1.28261,-0.85731 0.85628,-1.28158 0.85628,-1.28106 0.32711,-1.10019 0.32711,-1.09967 0.007,-2.38694 0.007,-2.38693 -0.86507,-1.75752 -0.86558,-1.75803 -0.91002,-0.79892 -0.91002,-0.79892 -1.16375,-0.68212 -1.16376,-0.68213 -2.09754,-0.5302 z m -19.14405,0.003 -10.6593,0.0692 -10.6593,0.0692 -0.0687,14.2875 -0.0687,14.2875 0.12661,0.33073 0.12661,0.33073 h 10.85618 10.85618 v -2.77812 -2.77813 h -7.67291 -7.67292 v -3.30729 -3.30729 l 0.59531,-0.0139 0.59532,-0.014 5.71903,0.0269 5.71903,0.0269 0.16795,-0.83975 0.16794,-0.83974 v -1.63401 -1.63349 l -0.31729,-0.31781 -0.31729,-0.31729 h -6.165 -6.165 v -3.04271 -3.04271 l 0.0661,-0.0553 0.0661,-0.0558 7.27604,-0.14263 7.27605,-0.14314 0.076,-2.58279 z m 125.657958,0.001 v 2.63085 2.63033 l 0.542603,0.1726 0.543119,0.17208 3.969267,-0.0811 3.96875,-0.0811 0.246496,0.38964 0.246497,0.38964 0.0041,11.57552 0.0041,11.57552 h 3.304191 3.304708 l 0.06873,-11.97239 0.06925,-11.9724 4.247803,0.0987 4.247803,0.0992 0.45837,-0.45837 0.45837,-0.45837 -0.07597,-2.28668 -0.07596,-2.28617 -12.766146,-0.0687 z m -197.612748,0.005 -0.13074,0.21136 -0.13022,0.21135 -0.0579,14.16865 -0.0574,14.16864 0.19017,0.30748 0.18965,0.30696 10.7642,-0.0687 10.76472,-0.0692 v -2.64583 -2.64584 l -7.60677,-0.0703 -7.60677,-0.0703 v -3.30315 -3.30316 h 6.35 6.35 v -2.77813 -2.77812 h -6.35879 -6.35878 l 0.0749,-2.97656 0.0749,-2.97657 7.27604,-0.13229 7.27604,-0.13229 0.0749,-2.71198 0.0754,-2.71198 H -251.374 Z m 26.16275,0 -0.0584,12.7 -0.0584,12.7 -0.008,1.91823 -0.008,1.91823 9.65729,0.13436 9.65729,0.13436 0.35243,-0.0682 0.35244,-0.0682 h 0.37517 0.37517 v -2.77812 -2.77813 h -7.01146 -7.01094 V 211.7633 199.85705 h -3.30781 z m 121.50834,0 -0.2744,0.33073 -0.27388,0.33073 -1.11053,2.51354 -1.11053,2.51354 -1.92753,4.36563 -1.92804,4.36562 -1.64177,3.57188 -1.64176,3.57187 -1.56062,3.64164 -1.56012,3.64164 v 0.26097 0.26096 h 3.32177 3.32227 l 0.53847,-1.25677 0.53795,-1.25677 0.75603,-1.65365 0.75603,-1.65364 h 6.32261 6.32313 l 0.39119,0.46302 0.39119,0.46302 0.86764,2.11667 0.86714,2.11666 0.27026,0.33073 0.26975,0.33073 h 3.292826 3.292822 l -0.181384,-0.57051 -0.180867,-0.5705 -4.105697,-9.15293 -4.10569,-9.15293 -1.95492,-4.35478 -1.9544,-4.35477 -0.39688,-0.60616 -0.39739,-0.60617 h -2.60759 z m 21.102075,0 v 14.50816 14.50764 l 0.176217,0.17673 0.176216,0.17622 h 2.998784 2.998783 v -8.73125 -8.73125 h 0.224792 0.224276 l 6.670394,8.33024 6.669877,8.33076 0.572575,0.40049 0.572058,0.40101 h 2.190047 2.190564 V 214.54138 199.857 h -3.042708 -3.042708 v 8.59896 8.59896 h -0.212907 -0.212907 l -0.827857,-0.8599 -0.828373,-0.85989 -2.682523,-3.3073 -2.682007,-3.30729 -3.576526,-4.43177 -3.576009,-4.43177 h -2.490288 z m -83.275535,5.21984 2.86752,0.13591 2.86753,0.13591 1.24747,0.62786 1.24695,0.62736 0.48111,0.9219 0.48162,0.92191 v 1.40353 1.40405 l -0.53227,1.04232 -0.53175,1.04231 -0.85731,0.46509 -0.85679,0.46457 -3.96875,0.092 -3.96875,0.092 -0.19844,-0.19844 -0.19844,-0.19896 v -4.30929 -4.30982 l 0.96015,-0.17983 z m 64.53353,1.92391 h 0.22221 0.2222 l 0.3111,0.99219 0.31109,0.99219 1.72754,4.30981 1.72806,4.30982 -0.10025,0.0889 -0.0997,0.0889 -3.83697,0.11369 -3.83594,0.11421 -0.48266,-0.10387 -0.48266,-0.10439 0.13023,-0.30748 0.13074,-0.30747 1.56838,-3.83646 1.56889,-3.83646 0.45889,-1.25677 z" /><path
         id="path22003"
         style="fill:url(#linearGradient22030);fill-opacity:1"
         d="m -203.64183,236.24346 -1.36788,0.47439 -1.36787,0.47387 -1.24902,1.09968 -1.24954,1.09967 -0.75603,1.59784 -0.75602,1.59835 v 2.04432 l -5.2e-4,2.04432 0.59531,1.52549 0.59532,1.52549 1.32291,1.32498 1.32292,1.32498 1.19062,0.44339 1.19063,0.44338 2.24896,0.0171 2.24947,0.0171 1.32292,-0.61805 1.32292,-0.61754 0.85989,-0.72605 0.8599,-0.72605 v -0.41858 -0.4191 l -0.43822,-0.48369 -0.4377,-0.48369 h -0.44235 -0.44183 l -0.64131,0.69298 -0.6413,0.6935 -1.1467,0.49712 -1.14618,0.49765 h -1.24902 -1.24902 l -1.3808,-0.68782 -1.38027,-0.68781 -0.74621,-1.09812 -0.74621,-1.09813 -0.30644,-0.89968 -0.30696,-0.89917 v -1.00873 -1.00924 l 0.5426,-1.44901 0.54209,-1.449 0.95963,-0.84284 0.96015,-0.84285 0.87075,-0.3638 0.87075,-0.3638 h 1.33945 1.33997 l 0.87075,0.3638 0.87074,0.3638 0.94155,0.82683 0.94206,0.82682 h 0.21239 0.21291 l 0.61236,-0.57516 0.61237,-0.57568 v -0.32297 -0.3235 l -0.97875,-0.85938 -0.97875,-0.85938 -1.20407,-0.53381 -1.20406,-0.53434 -1.98489,-0.0196 z m -30.95574,0.009 -2.3859,10e-4 -2.38538,0.001 -1.71566,0.93845 -1.71514,0.93844 -0.96842,1.27486 -0.96841,1.27486 -0.42065,1.49965 -0.42065,1.49965 v 1.07952 1.079 l 0.53176,1.72186 0.53175,1.72238 1.22214,1.3596 1.22267,1.35909 0.75396,0.39016 0.75396,0.39016 1.39423,0.39067 1.39474,0.39171 1.53118,-0.12764 1.53117,-0.12764 1.40353,-0.66405 1.40353,-0.66352 1.10329,-1.11466 1.1033,-1.11415 0.59221,-1.20147 0.59221,-1.20148 v -2.51354 -2.51354 l -0.64957,-1.27073 -0.64958,-1.27124 -1.23093,-1.15186 -1.23145,-1.15187 -1.1622,-0.61237 z m -21.43125,0.003 -1.33377,0.69504 -1.33376,0.69454 -1.07797,1.16995 -1.07797,1.16944 -0.56483,1.50998 -0.56482,1.50947 v 1.83968 1.83917 l 0.50953,1.34152 0.50953,1.341 0.68884,0.90279 0.68833,0.90279 0.94052,0.71726 0.93999,0.71727 1.36736,0.4899 1.36736,0.49041 1.88102,-0.11783 1.88102,-0.11782 1.29398,-0.65991 1.29398,-0.65991 0.75292,-0.79375 0.75344,-0.79323 -0.17156,-0.54053 -0.17157,-0.54054 -0.53795,-0.17105 -0.53847,-0.17053 -0.57257,0.524 -0.57258,0.52451 -1.11414,0.55914 -1.11414,0.55914 -1.3994,-0.003 -1.3994,-0.003 -1.32653,-0.61753 -1.32602,-0.61754 -0.67438,-0.90123 -0.67438,-0.90124 -0.38085,-0.92604 -0.38034,-0.92604 0.0196,-1.7198 0.0196,-1.71979 0.55243,-1.05833 0.55242,-1.05833 0.88315,-0.84388 0.88315,-0.84336 0.74465,-0.28112 0.74466,-0.2806 h 1.59629 1.5968 l 0.86765,0.41186 0.86764,0.41186 0.60772,0.64647 0.6072,0.64699 h 0.39584 0.39636 l 0.48369,-0.4377 0.4842,-0.43821 v -0.46561 -0.46612 l -1.03507,-0.81959 -1.03508,-0.81959 -1.01544,-0.44648 -1.01545,-0.44649 -2.38125,-0.004 z m 208.49167,5.1e-4 -1.223181,0.55604 -1.223181,0.55604 -1.106393,0.99994 -1.106909,0.99994 -0.713135,1.21284 -0.712618,1.21285 v 2.91042 2.91041 l 0.70435,1.32292 0.704867,1.32292 1.014925,0.97926 1.015442,0.97927 1.058333,0.44907 1.058333,0.44959 0.79375,0.21394 0.793234,0.21445 1.615405,-0.10748 1.614888,-0.10801 1.377177,-0.52296 1.377177,-0.52348 0.910539,-0.69454 0.910022,-0.69401 v -3.02927 -3.02927 l -0.06563,-0.0165 -0.06615,-0.016 -2.305286,-0.14728 -2.305802,-0.14728 -0.67076,0.16847 -0.671277,0.16846 v 0.92088 0.92139 h 1.864486 1.865002 l -0.07906,1.62884 -0.07855,1.62884 -1.053166,0.54519 -1.053165,0.54518 -1.592668,0.0956 -1.592668,0.0956 -0.960665,-0.40773 -0.960148,-0.40824 -0.837158,-0.70435 -0.837158,-0.70435 -0.540536,-1.05885 -0.540018,-1.05885 -0.145728,-1.41439 -0.146244,-1.4149 0.332279,-1.18649 0.33228,-1.18649 0.946195,-1.10536 0.945679,-1.10536 1.073319,-0.48731 1.07332,-0.48731 1.324467,-0.006 1.324467,-0.006 0.907438,0.25993 0.906921,0.26045 0.846977,0.82062 0.84646,0.82062 0.824239,-0.42633 0.824239,-0.42581 v -0.4992 -0.49867 l -0.859896,-0.72709 -0.859895,-0.72657 -1.190625,-0.54415 -1.190625,-0.54416 h -2.248959 z m -9.392708,0.0832 -1.12448,0.0817 -1.124479,0.0811 -0.132291,6.08542 -0.132292,6.08542 -0.917774,-1.32292 -0.917773,-1.32292 -2.125452,-2.64583 -2.125451,-2.64583 -1.696538,-2.19625 -1.696537,-2.19625 -0.948779,0.0796 -0.948779,0.0796 -0.07028,8.40052 -0.06976,8.40052 h 1.189592 1.189591 l 0.0708,-6.15156 0.07131,-6.15156 4.104142,5.15937 4.104659,5.15938 0.737423,0.99219 0.737939,0.99218 h 0.912606 0.912606 v -8.48216 z m -135.393282,0.004 -0.16589,1.00562 -0.16639,1.00563 -0.003,7.29826 -0.003,7.29774 0.17622,0.17674 0.17621,0.17621 h 0.72813 0.72812 l 0.41858,-0.16071 0.41857,-0.16071 v -3.54346 -3.54345 h 4.23334 4.23333 l 0.19844,-0.0661 0.19844,-0.0661 0.13229,3.70417 0.13229,3.70416 0.62218,0.0879 0.62219,0.0884 0.6382,-0.1602 0.63821,-0.16019 -0.0698,-8.26255 -0.0698,-8.26203 h -1.19063 -1.19062 l -0.13229,3.57188 -0.13229,3.57187 h -4.36563 -4.36562 l -0.1323,-3.57187 -0.13229,-3.57188 -1.08779,-0.0796 z m -28.14971,0.0269 -0.93689,2.05052 -0.93689,2.05052 -2.24793,5.15938 -2.24792,5.15937 -0.48008,1.10433 -0.48059,1.10381 0.15245,0.15296 0.15244,0.15244 h 0.99891 0.99839 l 0.2098,-0.33072 0.20981,-0.33073 0.80202,-1.85209 0.80201,-1.85208 3.96462,-0.14986 3.96513,-0.14986 0.30748,0.28215 0.30747,0.28215 0.7121,1.71979 0.71211,1.7198 0.26975,0.33073 0.26923,0.33072 h 1.05472 1.0542 l -0.15865,-0.63251 -0.15865,-0.63252 -2.66805,-6.04821 -2.66806,-6.04821 -0.81287,-1.78594 -0.81287,-1.78594 h -1.16633 z m 54.77289,0 -0.74931,0.38706 -0.74931,0.38757 -0.69298,0.82372 -0.69298,0.82321 v 1.51619 1.51567 l 0.66146,0.89658 0.66145,0.89659 -0.01,0.27905 -0.01,0.27957 -1.03818,0.71779 -1.03766,0.71726 -0.56896,1.11518 -0.56844,1.11466 0.12144,1.26866 0.12195,1.26814 0.6227,0.90899 0.62322,0.90899 0.7643,0.45113 0.76377,0.45165 0.70332,0.22893 0.7028,0.22944 1.8309,-0.11472 1.83089,-0.11472 1.29553,-0.80512 1.29553,-0.80564 h 0.19792 0.1974 l 0.76016,0.79375 0.76068,0.79375 h 0.4501 0.45062 l 0.60668,-0.49144 0.60668,-0.49144 -1.22266,-1.1622 -1.22267,-1.16221 0.68058,-2.03243 0.68058,-2.03192 -0.16588,-0.43201 -0.16588,-0.43202 -0.83406,0.0827 -0.83406,0.0832 -0.31936,1.08624 -0.31884,1.08624 -0.20361,0.3297 -0.2036,0.32917 -1.68775,-1.67276 -1.68776,-1.67277 v -0.18086 -0.18139 l 1.27693,-0.91726 1.27692,-0.91725 0.44287,-0.9338 0.44287,-0.93327 -0.001,-0.75396 -5.1e-4,-0.75344 -0.52607,-0.86248 -0.52555,-0.86248 -0.86248,-0.52555 -0.86248,-0.52555 -1.53427,-0.001 z m 15.1076,0 v 1.05833 1.05834 h 2.52181 2.52181 l 0.10749,0.33073 0.108,0.33073 0.0997,6.75979 0.0997,6.75928 0.20619,0.33279 0.20567,0.33332 0.8351,-0.0811 0.83509,-0.0811 0.13229,-7.27604 0.13229,-7.27604 2.71198,-0.0754 2.71198,-0.0754 v -1.04903 -1.04903 h -6.61459 z m 15.61042,0 v 8.29045 8.28993 l 0.18862,0.18914 0.18913,0.18965 0.93535,-0.0786 0.93586,-0.0791 0.13229,-3.04271 0.13229,-3.04271 1.57613,-0.0806 1.57665,-0.0811 0.58653,0.14727 0.58652,0.14728 2.05259,3.04271 2.05207,3.04219 2.66392,-0.004 2.66392,-0.004 0.27492,-0.1943 0.27492,-0.19431 0.75241,-1.71979 0.75241,-1.72031 0.262,-0.33073 0.26148,-0.33021 h 3.9486 3.94808 l 1.03456,2.24844 1.03404,2.24896 h 1.20251 1.20303 v -0.24081 -0.24081 l -1.28519,-2.86804 -1.28519,-2.86805 -2.33061,-5.35729 -2.33061,-5.35781 h -1.15238 -1.15239 l -0.30334,0.72708 -0.30282,0.72812 -1.78336,3.83646 -1.78283,3.83594 -0.79169,1.8526 -0.7922,1.85209 -0.81442,1.7663 -0.81442,1.7663 -0.22841,0.14159 -0.22841,0.14108 -2.27169,-3.03703 -2.27118,-3.03702 1.10484,-0.555 1.10484,-0.55553 0.49093,-0.43201 0.49093,-0.43202 0.52916,-1.03663 0.52917,-1.03663 -0.1049,-1.64382 -0.10439,-1.64383 -0.75241,-0.98599 -0.75241,-0.9865 -1.35392,-0.63045 -1.35341,-0.62994 -4.56406,-0.003 z m 33.08738,0 -0.0734,8.20364 -0.0734,8.20311 0.0879,0.26355 0.0884,0.26303 h 1.1684 1.168408 v -8.46666 -8.46667 h -1.182878 z m 6.335535,0 v 8.29045 8.28993 l 0.176217,0.17674 0.176216,0.17621 h 1.014409 1.013891 v -6.23321 -6.23372 l 0.240296,0.14831 0.239778,0.14831 3.018421,3.9026 3.018937,3.90209 1.647961,2.18281 1.648478,2.18281 h 0.914157 0.913639 v -8.46666 -8.46667 h -1.029395 -1.029394 l -0.175183,0.69712 -0.175183,0.69763 0.04547,5.13612 0.04547,5.13612 -0.130225,0.13022 -0.130224,0.13023 -4.691703,-5.96346 -4.691704,-5.96398 h -1.030428 z m 18.25625,0 v 8.29045 8.28993 l 0.176217,0.17674 0.176216,0.17621 h 1.014409 1.014408 v -8.46666 -8.46667 h -1.190625 z m -86.459325,1.75028 0.69763,0.39016 0.69815,0.38964 0.0832,1.00252 0.0832,1.00304 -0.96221,0.90692 -0.9617,0.90744 h -0.46922 -0.46974 l -0.4191,-0.46354 -0.41961,-0.46353 -0.29507,-0.77567 -0.29508,-0.77566 0.30851,-0.74414 0.30799,-0.74414 1.05627,-0.31626 z m -74.35515,0.30799 1.66243,0.10594 1.66295,0.10594 1.10329,0.73019 1.10329,0.73018 0.76843,1.21182 0.76895,1.21181 0.17828,1.18856 0.17828,1.18855 -0.31987,1.42886 -0.31988,1.42885 -0.85163,1.1188 -0.85162,1.11827 -1.44333,0.58705 -1.4428,0.58756 -1.05834,-0.0129 -1.05833,-0.0129 -1.10536,-0.39171 -1.10536,-0.3917 -1.0573,-1.14722 -1.05781,-1.14722 -0.28319,-1.02009 -0.28319,-1.01958 -0.001,-1.29242 -0.002,-1.29192 0.32504,-1.08933 0.32556,-1.08883 1.08883,-1.09037 1.08882,-1.09037 0.99322,-0.32815 z m 111.73427,0.0574 0.65319,0.33487 0.6537,0.33538 0.60307,0.89503 0.60358,0.89504 v 0.85163 0.85111 l -0.57361,0.72915 -0.57361,0.72916 -0.87333,0.36483 -0.87333,0.36484 h -2.92696 -2.92746 l 0.0744,-3.10886 0.0749,-3.10885 3.04271,-0.0667 z m 14.33607,1.03663 1.36478,3.25562 1.36477,3.2551 v 0.32814 0.32763 h -2.91093 -2.9099 v -0.25373 -0.25425 l 1.34979,-3.11919 1.34979,-3.1197 0.19585,-0.20981 z m -107.52728,0.0227 h 0.20205 0.20206 l 1.34823,3.19205 1.34824,3.19154 v 0.38034 0.37982 h -2.94142 -2.94142 l 0.13952,-0.59531 0.13953,-0.59531 1.2516,-2.97657 z m 54.33983,6.08542 1.89704,1.95595 1.89653,1.95647 v 0.2744 0.27492 l -0.75913,0.54105 -0.75964,0.54106 -1.42317,0.13694 -1.42317,0.13694 -0.59376,-0.25373 -0.59376,-0.25373 -0.52969,-0.8692 -0.5302,-0.86868 -10e-4,-0.66869 -5.2e-4,-0.66921 0.45475,-0.65371 0.45476,-0.65422 0.53743,-0.45424 0.53744,-0.45423 0.41806,-0.009 z" /></g></g></svg>
